<?xml version="1.0" standalone="no"?>
<!DOCTYPE svg PUBLIC "-//W3C//DTD SVG 20010904//EN"
 "http://www.w3.org/TR/2001/REC-SVG-20010904/DTD/svg10.dtd">
<svg version="1.0" xmlns="http://www.w3.org/2000/svg"
 width="160.000000pt" height="51.000000pt" viewBox="0 0 160.000000 51.000000"
 preserveAspectRatio="xMidYMid meet">

<g transform="translate(0.000000,51.000000) scale(0.100000,-0.100000)"
fill="#000000" stroke="none">
<path d="M0 255 l0 -255 800 0 800 0 0 255 0 255 -800 0 -800 0 0 -255z m1280
120 c16 -19 6 -45 -20 -52 -15 -4 -20 -14 -20 -37 -1 -68 -54 -141 -117 -160
-40 -13 -33 12 11 38 47 27 76 80 76 136 l0 30 -70 0 c-40 0 -70 4 -70 10 0 6
31 10 74 10 65 0 74 2 79 20 6 24 39 27 57 5z m-650 -128 l0 -113 -54 -2 c-65
-2 -90 20 -89 74 1 51 28 77 75 72 l38 -4 0 43 c0 32 4 43 15 43 12 0 15 -19
15 -113z m710 38 c0 -60 -3 -75 -15 -75 -12 0 -15 15 -15 75 0 60 3 75 15 75
12 0 15 -15 15 -75z m110 5 c0 -39 -6 -86 -14 -105 -14 -33 -59 -65 -91 -65
-26 0 -16 21 16 32 41 14 59 58 59 143 0 51 3 65 15 65 12 0 15 -14 15 -70z
m-410 39 c0 -23 -37 -89 -49 -89 -18 0 -18 14 0 43 10 18 19 35 19 40 0 4 -38
7 -85 7 -50 0 -85 4 -85 10 0 6 40 10 100 10 95 0 100 -1 100 -21z m-710 1 c0
-5 -13 -10 -30 -10 l-30 0 0 -95 c0 -88 -1 -95 -20 -95 -19 0 -20 7 -20 95 l0
95 -30 0 c-16 0 -30 5 -30 10 0 6 33 10 80 10 47 0 80 -4 80 -10z m620 -72 c0
-58 -24 -109 -60 -128 -37 -20 -39 -1 -4 34 31 31 34 40 34 90 0 43 3 56 15
56 11 0 15 -12 15 -52z m-510 2 c47 -47 11 -130 -55 -130 -46 0 -75 29 -75 75
0 22 8 43 20 55 12 12 33 20 55 20 22 0 43 -8 55 -20z m352 3 c25 -23 24 -87
-2 -113 -46 -46 -130 -11 -130 54 0 63 85 102 132 59z"/>
<path d="M1240 355 c0 -8 7 -15 15 -15 8 0 15 7 15 15 0 8 -7 15 -15 15 -8 0
-15 -7 -15 -15z"/>
<path d="M538 249 c-33 -19 -18 -99 18 -99 41 0 61 80 25 100 -23 12 -22 12
-43 -1z"/>
<path d="M358 249 c-25 -14 -24 -75 1 -89 27 -14 37 -13 55 6 20 20 20 58 0
78 -18 18 -32 20 -56 5z"/>
<path d="M706 244 c-20 -20 -20 -58 0 -78 32 -32 74 -10 74 39 0 49 -42 71
-74 39z"/>
</g>
</svg>
